%TF.GenerationSoftware,KiCad,Pcbnew,10.0.4*%
%TF.CreationDate,2026-08-13T16:19:03-04:00*%
%TF.ProjectId,Blynk,426c796e-6b2e-46b6-9963-61645f706362,rev?*%
%TF.SameCoordinates,Original*%
%TF.FileFunction,Soldermask,Top*%
%TF.FilePolarity,Negative*%
%FSLAX46Y46*%
G04 Gerber Fmt 4.6, Leading zero omitted, Abs format (unit mm)*
G04 Created by KiCad (PCBNEW 10.0.4) date 2026-08-13 16:19:03*
%MOMM*%
%LPD*%
G01*
G04 APERTURE LIST*
G04 Aperture macros list*
%AMRoundRect*
0 Rectangle with rounded corners*
0 $1 Rounding radius*
0 $2 $3 $4 $5 $6 $7 $8 $9 X,Y pos of 4 corners*
0 Add a 4 corners polygon primitive as box body*
4,1,4,$2,$3,$4,$5,$6,$7,$8,$9,$2,$3,0*
0 Add four circle primitives for the rounded corners*
1,1,$1+$1,$2,$3*
1,1,$1+$1,$4,$5*
1,1,$1+$1,$6,$7*
1,1,$1+$1,$8,$9*
0 Add four rect primitives between the rounded corners*
20,1,$1+$1,$2,$3,$4,$5,0*
20,1,$1+$1,$4,$5,$6,$7,0*
20,1,$1+$1,$6,$7,$8,$9,0*
20,1,$1+$1,$8,$9,$2,$3,0*%
%AMFreePoly0*
4,1,64,0.235856,1.440014,0.383010,1.379061,0.515445,1.290571,0.628071,1.177945,0.716561,1.045510,0.777514,0.898356,0.808588,0.742139,0.808588,0.582861,0.777514,0.426644,0.716561,0.279490,0.628071,0.147055,0.515445,0.034429,0.383010,-0.054061,0.235856,-0.115014,0.079639,-0.146088,0.031751,-0.146088,0.029264,-0.147118,-0.029264,-0.147118,-0.031751,-0.146088,-0.079639,-0.146088,
-0.235856,-0.115014,-0.383010,-0.054061,-0.515445,0.034429,-0.628071,0.147055,-0.716561,0.279490,-0.777514,0.426644,-0.808588,0.582861,-0.808588,0.729972,-0.512500,0.729972,-0.512500,0.595028,-0.477574,0.464683,-0.410102,0.347818,-0.314682,0.252398,-0.197817,0.184926,-0.067472,0.150000,0.067472,0.150000,0.197817,0.184926,0.314682,0.252398,0.410102,0.347818,0.477574,0.464683,
0.512500,0.595028,0.512500,0.729972,0.477574,0.860317,0.410102,0.977182,0.314682,1.072602,0.197817,1.140074,0.067472,1.175000,-0.067472,1.175000,-0.197817,1.140074,-0.314682,1.072602,-0.410102,0.977182,-0.477574,0.860317,-0.512500,0.729972,-0.808588,0.729972,-0.808588,0.742139,-0.777514,0.898356,-0.716561,1.045510,-0.628071,1.177945,-0.515445,1.290571,-0.383010,1.379061,
-0.235856,1.440014,-0.079639,1.471088,0.079639,1.471088,0.235856,1.440014,0.235856,1.440014,$1*%
G04 Aperture macros list end*
%ADD10RoundRect,0.150000X-0.150000X0.587500X-0.150000X-0.587500X0.150000X-0.587500X0.150000X0.587500X0*%
%ADD11RoundRect,0.225000X0.250000X-0.225000X0.250000X0.225000X-0.250000X0.225000X-0.250000X-0.225000X0*%
%ADD12RoundRect,0.225000X0.225000X0.250000X-0.225000X0.250000X-0.225000X-0.250000X0.225000X-0.250000X0*%
%ADD13RoundRect,0.147500X-0.172500X0.147500X-0.172500X-0.147500X0.172500X-0.147500X0.172500X0.147500X0*%
%ADD14RoundRect,0.225000X-0.225000X-0.250000X0.225000X-0.250000X0.225000X0.250000X-0.225000X0.250000X0*%
%ADD15RoundRect,0.200000X0.275000X-0.200000X0.275000X0.200000X-0.275000X0.200000X-0.275000X-0.200000X0*%
%ADD16RoundRect,0.150000X-0.150000X0.512500X-0.150000X-0.512500X0.150000X-0.512500X0.150000X0.512500X0*%
%ADD17RoundRect,0.352000X-0.425000X-0.650000X0.425000X-0.650000X0.425000X0.650000X-0.425000X0.650000X0*%
%ADD18RoundRect,0.093750X-0.156250X-0.093750X0.156250X-0.093750X0.156250X0.093750X-0.156250X0.093750X0*%
%ADD19RoundRect,0.075000X-0.250000X-0.075000X0.250000X-0.075000X0.250000X0.075000X-0.250000X0.075000X0*%
%ADD20RoundRect,0.200000X0.200000X0.275000X-0.200000X0.275000X-0.200000X-0.275000X0.200000X-0.275000X0*%
%ADD21RoundRect,0.250000X0.712500X2.475000X-0.712500X2.475000X-0.712500X-2.475000X0.712500X-2.475000X0*%
%ADD22RoundRect,0.200000X-0.200000X-0.275000X0.200000X-0.275000X0.200000X0.275000X-0.200000X0.275000X0*%
%ADD23RoundRect,0.225000X-0.250000X0.225000X-0.250000X-0.225000X0.250000X-0.225000X0.250000X0.225000X0*%
%ADD24RoundRect,0.147500X0.172500X-0.147500X0.172500X0.147500X-0.172500X0.147500X-0.172500X-0.147500X0*%
%ADD25R,0.522000X0.600000*%
%ADD26FreePoly0,180.000000*%
%ADD27R,1.000000X1.000000*%
%ADD28C,1.000000*%
%ADD29R,1.700000X1.700000*%
%ADD30C,1.700000*%
%ADD31RoundRect,0.150000X-0.587500X-0.150000X0.587500X-0.150000X0.587500X0.150000X-0.587500X0.150000X0*%
%ADD32RoundRect,0.050000X-0.050000X0.375000X-0.050000X-0.375000X0.050000X-0.375000X0.050000X0.375000X0*%
%ADD33RoundRect,0.050000X-0.375000X0.050000X-0.375000X-0.050000X0.375000X-0.050000X0.375000X0.050000X0*%
%ADD34R,1.650000X1.650000*%
%ADD35R,1.800000X1.800000*%
%ADD36C,1.800000*%
%ADD37RoundRect,0.150000X0.150000X-0.875000X0.150000X0.875000X-0.150000X0.875000X-0.150000X-0.875000X0*%
%ADD38RoundRect,0.150000X-0.575000X0.150000X-0.575000X-0.150000X0.575000X-0.150000X0.575000X0.150000X0*%
%ADD39RoundRect,0.075000X-0.650000X0.075000X-0.650000X-0.075000X0.650000X-0.075000X0.650000X0.075000X0*%
%ADD40O,2.100000X1.000000*%
%ADD41O,1.600000X1.000000*%
%ADD42RoundRect,0.288000X-0.900000X1.000000X-0.900000X-1.000000X0.900000X-1.000000X0.900000X1.000000X0*%
%ADD43O,2.200000X1.200000*%
%ADD44O,1.200000X2.200000*%
%ADD45RoundRect,0.200000X-0.275000X0.200000X-0.275000X-0.200000X0.275000X-0.200000X0.275000X0.200000X0*%
%ADD46RoundRect,0.150000X0.150000X-0.512500X0.150000X0.512500X-0.150000X0.512500X-0.150000X-0.512500X0*%
%ADD47RoundRect,0.250000X-0.850000X-0.350000X0.850000X-0.350000X0.850000X0.350000X-0.850000X0.350000X0*%
%ADD48RoundRect,0.249997X-2.950003X-2.650003X2.950003X-2.650003X2.950003X2.650003X-2.950003X2.650003X0*%
%ADD49RoundRect,0.218750X-0.218750X-0.256250X0.218750X-0.256250X0.218750X0.256250X-0.218750X0.256250X0*%
%ADD50R,1.500000X0.900000*%
%ADD51R,0.900000X1.500000*%
%ADD52C,0.600000*%
%ADD53R,3.900000X3.900000*%
%ADD54RoundRect,0.218750X-0.256250X0.218750X-0.256250X-0.218750X0.256250X-0.218750X0.256250X0.218750X0*%
%ADD55RoundRect,0.102000X-0.275000X-0.125000X0.275000X-0.125000X0.275000X0.125000X-0.275000X0.125000X0*%
%ADD56RoundRect,0.249999X-1.250001X1.250001X-1.250001X-1.250001X1.250001X-1.250001X1.250001X1.250001X0*%
%ADD57C,3.000000*%
%ADD58RoundRect,0.112500X0.112500X-0.187500X0.112500X0.187500X-0.112500X0.187500X-0.112500X-0.187500X0*%
%ADD59RoundRect,0.250000X1.000000X0.650000X-1.000000X0.650000X-1.000000X-0.650000X1.000000X-0.650000X0*%
%ADD60R,2.000000X2.000000*%
%ADD61C,2.000000*%
G04 APERTURE END LIST*
D10*
%TO.C,Q6*%
X244737500Y-133575000D03*
X242837500Y-133575000D03*
X243787500Y-135450000D03*
%TD*%
D11*
%TO.C,C29*%
X239700000Y-123255000D03*
X239700000Y-121705000D03*
%TD*%
D12*
%TO.C,C9*%
X245175000Y-118000000D03*
X243625000Y-118000000D03*
%TD*%
D13*
%TO.C,L3*%
X230300000Y-131090000D03*
X230300000Y-132060000D03*
%TD*%
D14*
%TO.C,C6*%
X258350000Y-132700000D03*
X259900000Y-132700000D03*
%TD*%
D15*
%TO.C,R19*%
X255493750Y-109325000D03*
X255493750Y-107675000D03*
%TD*%
D11*
%TO.C,C12*%
X247600000Y-121150000D03*
X247600000Y-119600000D03*
%TD*%
D16*
%TO.C,U5*%
X239587500Y-106200000D03*
X238625000Y-106200000D03*
X237687500Y-106200000D03*
X237687500Y-108475000D03*
X238637500Y-108475000D03*
X239587500Y-108475000D03*
%TD*%
D17*
%TO.C,SW5*%
X190210188Y-131281759D03*
X194360188Y-131281759D03*
%TD*%
D15*
%TO.C,R8*%
X249250000Y-109325000D03*
X249250000Y-107675000D03*
%TD*%
D18*
%TO.C,U6*%
X232275000Y-127982500D03*
D19*
X232200000Y-128520000D03*
D18*
X232275000Y-129057500D03*
X233975000Y-129057500D03*
D19*
X234050000Y-128520000D03*
D18*
X233975000Y-127982500D03*
%TD*%
D20*
%TO.C,R18*%
X241087500Y-131700000D03*
X239437500Y-131700000D03*
%TD*%
D14*
%TO.C,C10*%
X251775000Y-116537500D03*
X253325000Y-116537500D03*
%TD*%
D21*
%TO.C,F2*%
X229787500Y-105087500D03*
X223012500Y-105087500D03*
%TD*%
D22*
%TO.C,R25*%
X190395188Y-92381759D03*
X192045188Y-92381759D03*
%TD*%
D20*
%TO.C,R20*%
X248125000Y-131700000D03*
X246475000Y-131700000D03*
%TD*%
D23*
%TO.C,C14*%
X245900000Y-119600000D03*
X245900000Y-121150000D03*
%TD*%
D24*
%TO.C,L4*%
X230300000Y-125745000D03*
X230300000Y-124775000D03*
%TD*%
D25*
%TO.C,MK1*%
X261350000Y-134450000D03*
X262172000Y-134450000D03*
D26*
X263424000Y-132887500D03*
D25*
X262172000Y-132650000D03*
X261350000Y-132650000D03*
X261350000Y-133550000D03*
%TD*%
D12*
%TO.C,C3*%
X241600000Y-88500000D03*
X240050000Y-88500000D03*
%TD*%
D20*
%TO.C,R27*%
X211935188Y-93731759D03*
X210285188Y-93731759D03*
%TD*%
D27*
%TO.C,J10*%
X214385188Y-91301759D03*
D28*
X213115188Y-91301759D03*
X211845188Y-91301759D03*
%TD*%
D15*
%TO.C,R16*%
X250825000Y-109325000D03*
X250825000Y-107675000D03*
%TD*%
D22*
%TO.C,R4*%
X256550000Y-130080000D03*
X258200000Y-130080000D03*
%TD*%
D29*
%TO.C,J5*%
X264500000Y-125000000D03*
D30*
X264500000Y-127540000D03*
X264500000Y-130080000D03*
%TD*%
D17*
%TO.C,SW2*%
X190210188Y-107531759D03*
X194360188Y-107531759D03*
%TD*%
D23*
%TO.C,C28*%
X249300000Y-123450000D03*
X249300000Y-125000000D03*
%TD*%
D31*
%TO.C,Q1*%
X188910188Y-99081759D03*
X188910188Y-100981759D03*
X190785188Y-100031759D03*
%TD*%
D11*
%TO.C,C27*%
X245900000Y-125000000D03*
X245900000Y-123450000D03*
%TD*%
D17*
%TO.C,SW11*%
X198760188Y-131281759D03*
X202910188Y-131281759D03*
%TD*%
D22*
%TO.C,R6*%
X240000000Y-100600000D03*
X241650000Y-100600000D03*
%TD*%
D20*
%TO.C,R13*%
X244825000Y-129150000D03*
X243175000Y-129150000D03*
%TD*%
D15*
%TO.C,R17*%
X252381250Y-109325000D03*
X252381250Y-107675000D03*
%TD*%
D17*
%TO.C,SW3*%
X240350000Y-97200000D03*
X244500000Y-97200000D03*
%TD*%
D32*
%TO.C,U2*%
X249212500Y-115087500D03*
X248812500Y-115087500D03*
X248412500Y-115087500D03*
X248012500Y-115087500D03*
X247612500Y-115087500D03*
D33*
X246962500Y-115737500D03*
X246962500Y-116137500D03*
X246962500Y-116537500D03*
X246962500Y-116937500D03*
X246962500Y-117337500D03*
D32*
X247612500Y-117987500D03*
X248012500Y-117987500D03*
X248412500Y-117987500D03*
X248812500Y-117987500D03*
X249212500Y-117987500D03*
D33*
X249862500Y-117337500D03*
X249862500Y-116937500D03*
X249862500Y-116537500D03*
X249862500Y-116137500D03*
X249862500Y-115737500D03*
D34*
X248412500Y-116537500D03*
%TD*%
D17*
%TO.C,SW8*%
X198760188Y-115448426D03*
X202910188Y-115448426D03*
%TD*%
%TO.C,SW9*%
X190210188Y-123365092D03*
X194360188Y-123365092D03*
%TD*%
D22*
%TO.C,R11*%
X256550000Y-127400000D03*
X258200000Y-127400000D03*
%TD*%
D23*
%TO.C,C22*%
X260950000Y-107725000D03*
X260950000Y-109275000D03*
%TD*%
D20*
%TO.C,R1*%
X259950000Y-134250000D03*
X258300000Y-134250000D03*
%TD*%
D35*
%TO.C,D3*%
X189010188Y-95681759D03*
D36*
X191550188Y-95681759D03*
%TD*%
D10*
%TO.C,Q4*%
X241212500Y-133575000D03*
X239312500Y-133575000D03*
X240262500Y-135450000D03*
%TD*%
D17*
%TO.C,SW4*%
X240350000Y-91100000D03*
X244500000Y-91100000D03*
%TD*%
D37*
%TO.C,U8*%
X195200188Y-100331759D03*
X196470188Y-100331759D03*
X197740188Y-100331759D03*
X199010188Y-100331759D03*
X200280188Y-100331759D03*
X201550188Y-100331759D03*
X202820188Y-100331759D03*
X204090188Y-100331759D03*
X205360188Y-100331759D03*
X206630188Y-100331759D03*
X206630188Y-91031759D03*
X205360188Y-91031759D03*
X204090188Y-91031759D03*
X202820188Y-91031759D03*
X201550188Y-91031759D03*
X200280188Y-91031759D03*
X199010188Y-91031759D03*
X197740188Y-91031759D03*
X196470188Y-91031759D03*
X195200188Y-91031759D03*
%TD*%
D23*
%TO.C,C5*%
X238500000Y-90350000D03*
X238500000Y-91900000D03*
%TD*%
D14*
%TO.C,C2*%
X243250000Y-88500000D03*
X244800000Y-88500000D03*
%TD*%
D22*
%TO.C,R5*%
X240000000Y-94500000D03*
X241650000Y-94500000D03*
%TD*%
%TO.C,R10*%
X258300000Y-135800000D03*
X259950000Y-135800000D03*
%TD*%
D12*
%TO.C,C11*%
X245175000Y-116400000D03*
X243625000Y-116400000D03*
%TD*%
D38*
%TO.C,J1*%
X228485000Y-124410000D03*
X228485000Y-125210000D03*
D39*
X228485000Y-126410000D03*
X228485000Y-127410000D03*
X228485000Y-127910000D03*
X228485000Y-128910000D03*
D38*
X228485000Y-130110000D03*
X228485000Y-130910000D03*
X228485000Y-130910000D03*
X228485000Y-130110000D03*
D39*
X228485000Y-129410000D03*
X228485000Y-128410000D03*
X228485000Y-126910000D03*
X228485000Y-125910000D03*
D38*
X228485000Y-125210000D03*
X228485000Y-124410000D03*
D40*
X227570000Y-123340000D03*
D41*
X223390000Y-123340000D03*
D40*
X227570000Y-131980000D03*
D41*
X223390000Y-131980000D03*
%TD*%
D10*
%TO.C,Q5*%
X248250000Y-133575000D03*
X246350000Y-133575000D03*
X247300000Y-135450000D03*
%TD*%
D17*
%TO.C,SW12*%
X207310188Y-107531759D03*
X211460188Y-107531759D03*
%TD*%
D23*
%TO.C,C26*%
X247600000Y-123450000D03*
X247600000Y-125000000D03*
%TD*%
D14*
%TO.C,C30*%
X237850000Y-102500000D03*
X239400000Y-102500000D03*
%TD*%
D11*
%TO.C,C25*%
X244025000Y-126950000D03*
X244025000Y-125400000D03*
%TD*%
D14*
%TO.C,C4*%
X243250000Y-100600000D03*
X244800000Y-100600000D03*
%TD*%
D20*
%TO.C,R15*%
X237575000Y-131700000D03*
X235925000Y-131700000D03*
%TD*%
D17*
%TO.C,SW10*%
X198760188Y-123365092D03*
X202910188Y-123365092D03*
%TD*%
D20*
%TO.C,R22*%
X244612500Y-131700000D03*
X242962500Y-131700000D03*
%TD*%
D42*
%TO.C,D2*%
X233900000Y-103587500D03*
X233900000Y-107887500D03*
%TD*%
D12*
%TO.C,C21*%
X258150000Y-125000000D03*
X256600000Y-125000000D03*
%TD*%
D22*
%TO.C,R7*%
X243200000Y-102200000D03*
X244850000Y-102200000D03*
%TD*%
D43*
%TO.C,J3*%
X257000000Y-121537500D03*
D44*
X262000000Y-116537500D03*
D43*
X257000000Y-111537500D03*
%TD*%
D23*
%TO.C,C16*%
X249200000Y-111550000D03*
X249200000Y-113100000D03*
%TD*%
D17*
%TO.C,SW7*%
X198760188Y-107531759D03*
X202910188Y-107531759D03*
%TD*%
D22*
%TO.C,R2*%
X227400000Y-133860000D03*
X229050000Y-133860000D03*
%TD*%
D17*
%TO.C,SW13*%
X207310188Y-115448426D03*
X211460188Y-115448426D03*
%TD*%
D20*
%TO.C,R12*%
X241700000Y-129150000D03*
X240050000Y-129150000D03*
%TD*%
D29*
%TO.C,J2*%
X260800000Y-125000000D03*
D30*
X260800000Y-127540000D03*
X260800000Y-130080000D03*
%TD*%
D23*
%TO.C,C23*%
X265540000Y-132675000D03*
X265540000Y-134225000D03*
%TD*%
D45*
%TO.C,R26*%
X192710188Y-99206759D03*
X192710188Y-100856759D03*
%TD*%
D20*
%TO.C,R3*%
X229050000Y-121460000D03*
X227400000Y-121460000D03*
%TD*%
D23*
%TO.C,C8*%
X251000000Y-119600000D03*
X251000000Y-121150000D03*
%TD*%
D20*
%TO.C,R24*%
X251625000Y-131700000D03*
X249975000Y-131700000D03*
%TD*%
D14*
%TO.C,C1*%
X243250000Y-94500000D03*
X244800000Y-94500000D03*
%TD*%
D45*
%TO.C,R9*%
X259375000Y-107675000D03*
X259375000Y-109325000D03*
%TD*%
D46*
%TO.C,U4*%
X241475000Y-123617500D03*
X242425000Y-123617500D03*
X243375000Y-123617500D03*
X243375000Y-121342500D03*
X242425000Y-121342500D03*
X241475000Y-121342500D03*
%TD*%
D10*
%TO.C,Q7*%
X251750000Y-133575000D03*
X249850000Y-133575000D03*
X250800000Y-135450000D03*
%TD*%
D47*
%TO.C,Q2*%
X232975000Y-114020000D03*
D48*
X239275000Y-116300000D03*
D47*
X232975000Y-118580000D03*
%TD*%
D49*
%TO.C,F1*%
X232317500Y-125460000D03*
X233892500Y-125460000D03*
%TD*%
D50*
%TO.C,U1*%
X246950000Y-88000000D03*
X246950000Y-89270000D03*
X246950000Y-90540000D03*
X246950000Y-91810000D03*
X246950000Y-93080000D03*
X246950000Y-94350000D03*
X246950000Y-95620000D03*
X246950000Y-96890000D03*
X246950000Y-98160000D03*
X246950000Y-99430000D03*
X246950000Y-100700000D03*
X246950000Y-101970000D03*
X246950000Y-103240000D03*
X246950000Y-104510000D03*
D51*
X248715000Y-105760000D03*
X249985000Y-105760000D03*
X251255000Y-105760000D03*
X252525000Y-105760000D03*
X253795000Y-105760000D03*
X255065000Y-105760000D03*
X256335000Y-105760000D03*
X257605000Y-105760000D03*
X258875000Y-105760000D03*
X260145000Y-105760000D03*
X261415000Y-105760000D03*
X262685000Y-105760000D03*
D50*
X264450000Y-104510000D03*
X264450000Y-103240000D03*
X264450000Y-101970000D03*
X264450000Y-100700000D03*
X264450000Y-99430000D03*
X264450000Y-98160000D03*
X264450000Y-96890000D03*
X264450000Y-95620000D03*
X264450000Y-94350000D03*
X264450000Y-93080000D03*
X264450000Y-91810000D03*
X264450000Y-90540000D03*
X264450000Y-89270000D03*
X264450000Y-88000000D03*
D52*
X252800000Y-95020000D03*
X252800000Y-96420000D03*
X253500000Y-94320000D03*
X253500000Y-95720000D03*
X253500000Y-97120000D03*
X254200000Y-95020000D03*
D53*
X254200000Y-95720000D03*
D52*
X254200000Y-96420000D03*
X254900000Y-94320000D03*
X254900000Y-95720000D03*
X254900000Y-97120000D03*
X255600000Y-95020000D03*
X255600000Y-96420000D03*
%TD*%
D23*
%TO.C,C19*%
X247600000Y-111550000D03*
X247600000Y-113100000D03*
%TD*%
%TO.C,C13*%
X234400000Y-131350000D03*
X234400000Y-132900000D03*
%TD*%
D54*
%TO.C,L1*%
X240825000Y-125387500D03*
X240825000Y-126962500D03*
%TD*%
D17*
%TO.C,SW14*%
X207310188Y-123365092D03*
X211460188Y-123365092D03*
%TD*%
D55*
%TO.C,J4*%
X262995000Y-107998750D03*
X262995000Y-108498750D03*
X262995000Y-108998750D03*
X265745000Y-108998750D03*
X265745000Y-108498750D03*
X265745000Y-107998750D03*
%TD*%
D56*
%TO.C,J7*%
X225932500Y-111800000D03*
D57*
X225932500Y-116800000D03*
%TD*%
D15*
%TO.C,R23*%
X257050000Y-109325000D03*
X257050000Y-107675000D03*
%TD*%
D17*
%TO.C,SW6*%
X190210188Y-115448426D03*
X194360188Y-115448426D03*
%TD*%
D58*
%TO.C,D1*%
X232575000Y-133295000D03*
X232575000Y-131195000D03*
%TD*%
D20*
%TO.C,R14*%
X239450000Y-104100000D03*
X237800000Y-104100000D03*
%TD*%
D10*
%TO.C,Q3*%
X237700000Y-133575000D03*
X235800000Y-133575000D03*
X236750000Y-135450000D03*
%TD*%
D11*
%TO.C,C24*%
X242425000Y-126950000D03*
X242425000Y-125400000D03*
%TD*%
D29*
%TO.C,J8*%
X237480000Y-138400000D03*
D30*
X240020000Y-138400000D03*
X242560000Y-138400000D03*
X245100000Y-138400000D03*
X247640000Y-138400000D03*
X250180000Y-138400000D03*
%TD*%
D15*
%TO.C,R21*%
X253937500Y-109325000D03*
X253937500Y-107675000D03*
%TD*%
D17*
%TO.C,SW15*%
X207310188Y-131281759D03*
X211460188Y-131281759D03*
%TD*%
D23*
%TO.C,C15*%
X249300000Y-119600000D03*
X249300000Y-121150000D03*
%TD*%
D59*
%TO.C,D4*%
X237125000Y-122480000D03*
X233125000Y-122480000D03*
%TD*%
D23*
%TO.C,C31*%
X195200188Y-102631759D03*
X195200188Y-104181759D03*
%TD*%
D60*
%TO.C,J9*%
X190027734Y-126781759D03*
D61*
X210827734Y-126781759D03*
%TD*%
M02*
