%TF.GenerationSoftware,KiCad,Pcbnew,10.0.4*%
%TF.CreationDate,2026-08-13T16:19:03-04:00*%
%TF.ProjectId,Blynk,426c796e-6b2e-46b6-9963-61645f706362,rev?*%
%TF.SameCoordinates,Original*%
%TF.FileFunction,Profile,NP*%
%FSLAX46Y46*%
G04 Gerber Fmt 4.6, Leading zero omitted, Abs format (unit mm)*
G04 Created by KiCad (PCBNEW 10.0.4) date 2026-08-13 16:19:03*
%MOMM*%
%LPD*%
G01*
G04 APERTURE LIST*
%TA.AperFunction,Profile*%
%ADD10C,0.050000*%
%TD*%
%TA.AperFunction,Profile*%
%ADD11C,0.200000*%
%TD*%
%TA.AperFunction,Profile*%
%ADD12C,0.100000*%
%TD*%
G04 APERTURE END LIST*
D10*
X221400000Y-99430000D02*
X221400000Y-99565000D01*
X215900000Y-95000000D02*
X215885188Y-94800000D01*
X215900000Y-99800000D02*
X215900000Y-100000000D01*
D11*
X185885188Y-91256759D02*
G75*
G02*
X187885188Y-89256688I2000012J59D01*
G01*
X185885188Y-137256759D02*
X185885188Y-91256759D01*
X187885188Y-89256759D02*
X213885188Y-89256759D01*
X187885188Y-139256759D02*
G75*
G02*
X185885141Y-137256759I-88J1999959D01*
G01*
X213885188Y-89256759D02*
G75*
G02*
X215885141Y-91256759I-88J-2000041D01*
G01*
X213885188Y-139256759D02*
X187885188Y-139256759D01*
X215885188Y-91256759D02*
X215885188Y-93795514D01*
X215885188Y-93795514D02*
X215885188Y-94800000D01*
X215885188Y-137256759D02*
G75*
G02*
X213885188Y-139256688I-1999988J59D01*
G01*
X215885188Y-137256759D02*
X215900000Y-100000000D01*
D10*
X221400000Y-88500000D02*
X221400000Y-95370000D01*
X221400000Y-88500000D02*
G75*
G02*
X223400000Y-86500000I2000000J0D01*
G01*
X221400000Y-99565000D02*
X221400000Y-138350000D01*
X223400000Y-86500000D02*
X264400000Y-86500000D01*
X223400000Y-140350000D02*
G75*
G02*
X221400000Y-138350000I0J2000000D01*
G01*
X264400000Y-86500000D02*
G75*
G02*
X266400000Y-88500000I0J-2000000D01*
G01*
X264400000Y-140350000D02*
X223400000Y-140350000D01*
X266400000Y-88500000D02*
X266400000Y-138350000D01*
X266400000Y-138350000D02*
G75*
G02*
X264400000Y-140350000I-2000000J0D01*
G01*
%TO.C,MB5*%
D12*
X217400000Y-93500000D02*
X217400000Y-95000000D01*
X217400000Y-99800000D02*
X217400000Y-101300000D01*
X219900000Y-95370000D02*
X219900000Y-93500000D01*
X219900000Y-101300000D02*
X219900000Y-99430000D01*
X215900000Y-99800000D02*
G75*
G02*
X217400000Y-99800000I750000J0D01*
G01*
X217400000Y-93500000D02*
G75*
G02*
X219900000Y-93500000I1250000J0D01*
G01*
X217400000Y-95000000D02*
G75*
G02*
X215900000Y-95000000I-750000J0D01*
G01*
X219900000Y-99430000D02*
G75*
G02*
X221400000Y-99430000I750000J0D01*
G01*
X219900000Y-101300000D02*
G75*
G02*
X217400000Y-101300000I-1250000J0D01*
G01*
X221400000Y-95370000D02*
G75*
G02*
X219900000Y-95370000I-750000J0D01*
G01*
%TD*%
M02*
