M48
; DRILL file KiCad 10.0.4 date 2026-08-13T16:19:03
; FORMAT={-:-/ absolute / inch / decimal}
; #@! TF.CreationDate,2026-08-13T16:19:03-04:00
; #@! TF.GenerationSoftware,Kicad,Pcbnew,10.0.4
; #@! TF.FileFunction,Plated,1,2,PTH
FMAT,2
INCH
; #@! TA.AperFunction,Plated,PTH,ComponentDrill
T1C0.0079
; #@! TA.AperFunction,Plated,PTH,ViaDrill
T2C0.0118
; #@! TA.AperFunction,Plated,PTH,ComponentDrill
T3C0.0157
; #@! TA.AperFunction,Plated,PTH,ComponentDrill
T4C0.0236
; #@! TA.AperFunction,Plated,PTH,ComponentDrill
T5C0.0256
; #@! TA.AperFunction,Plated,PTH,ComponentDrill
T6C0.0354
; #@! TA.AperFunction,Plated,PTH,ComponentDrill
T7C0.0394
; #@! TA.AperFunction,Plated,PTH,ComponentDrill
T8C0.0512
; #@! TA.AperFunction,Plated,PTH,ComponentDrill
T9C0.0591
%
G90
G05
T1
X9.9528Y-3.7409
X9.9528Y-3.7961
X9.9803Y-3.7134
X9.9803Y-3.7685
X9.9803Y-3.8236
X10.0079Y-3.7409
X10.0079Y-3.7961
X10.0354Y-3.7134
X10.0354Y-3.7685
X10.0354Y-3.8236
X10.063Y-3.7409
X10.063Y-3.7961
T2
X7.5398Y-4.3969
X7.6185Y-3.5642
X7.6264Y-3.6292
X7.6323Y-4.1351
X7.6736Y-4.6528
X7.7051Y-3.8103
X7.8488Y-3.7217
X7.8862Y-4.645
X7.8921Y-3.8556
X7.9177Y-4.078
X7.9886Y-3.6528
X7.9886Y-4.3379
X8.0201Y-3.7394
X8.0358Y-3.6528
X8.0358Y-4.0308
X8.0673Y-4.6213
X8.0831Y-3.7158
X8.091Y-3.6607
X8.091Y-3.8497
X8.091Y-4.0938
X8.1047Y-3.7808
X8.1067Y-4.0387
X8.1067Y-4.582
X8.1382Y-3.7394
X8.1618Y-3.6607
X8.1658Y-4.3654
X8.1795Y-4.7099
X8.2012Y-3.8654
X8.215Y-3.956
X8.215Y-4.4461
X8.2327Y-4.1016
X8.3036Y-3.7788
X8.7854Y-4.502
X8.8386Y-4.752
X8.9114Y-4.9685
X8.9213Y-5.1063
X9.002Y-5.3878
X9.0177Y-4.6614
X9.122Y-4.063
X9.1358Y-5.376
X9.1358Y-5.4075
X9.1673Y-5.376
X9.1673Y-5.4075
X9.1811Y-3.874
X9.2421Y-4.7303
X9.2658Y-4.7067
X9.2953Y-4.0472
X9.311Y-5.0157
X9.311Y-5.0472
X9.3189Y-5.2559
X9.3425Y-5.0157
X9.3425Y-5.0472
X9.3957Y-3.9567
X9.4055Y-5.3386
X9.4173Y-3.9272
X9.4213Y-4.9587
X9.434Y-3.5338
X9.4902Y-4.0236
X9.5118Y-4.3602
X9.5157Y-4.1339
X9.5315Y-3.9094
X9.5335Y-5.3386
X9.5453Y-4.1909
X9.5453Y-3.7539
X9.5453Y-5.0472
X9.5472Y-3.6024
X9.5571Y-4.0945
X9.5591Y-3.5413
X9.5591Y-4.2874
X9.5689Y-4.2146
X9.5748Y-4.9685
X9.6083Y-5.0453
X9.6122Y-4.7992
X9.6177Y-4.8996
X9.6211Y-4.6151
X9.628Y-4.378
X9.628Y-4.5039
X9.6421Y-4.1642
X9.6457Y-4.063
X9.6535Y-3.6732
X9.6575Y-3.9016
X9.6673Y-4.1831
X9.6693Y-4.9685
X9.6713Y-4.315
X9.6732Y-3.8287
X9.6752Y-5.3366
X9.6772Y-3.7244
X9.689Y-5.0256
X9.6949Y-4.5295
X9.7185Y-4.4215
X9.7196Y-4.3386
X9.7323Y-4.1713
X9.7382Y-5.2579
X9.7402Y-4.9685
X9.7795Y-4.4823
X9.7795Y-4.7402
X9.7874Y-3.8661
X9.7874Y-4.0709
X9.7952Y-4.3387
X9.811Y-5.3524
X9.8228Y-4.0295
X9.8425Y-4.3624
X9.8425Y-4.4804
X9.8622Y-4.6437
X9.8661Y-4.4311
X9.8819Y-4.0866
X9.8839Y-4.9232
X9.8898Y-4.4096
X9.9134Y-4.6339
X9.937Y-4.6732
X9.9528Y-3.9075
X9.9606Y-4.5354
X9.9783Y-4.6437
X9.9921Y-5.1811
X10.0669Y-4.0807
X10.0827Y-3.5276
X10.1004Y-5.1969
X10.1033Y-4.4912
X10.1043Y-4.8583
X10.1161Y-4.7067
X10.1496Y-4.2677
X10.1949Y-5.1811
X10.1975Y-4.2689
X10.1988Y-3.9193
X10.2047Y-4.5197
X10.25Y-4.4783
X10.2598Y-4.4193
X10.2618Y-3.7815
X10.2835Y-5.3543
X10.3192Y-5.2576
X10.3327Y-4.0945
X10.3484Y-5.1811
X10.3543Y-5.3012
X10.3858Y-4.4547
X10.3917Y-4.2146
X10.4055Y-4.2638
X10.4213Y-5.3051
X10.4469Y-4.1929
X10.4567Y-4.4429
T5
X8.3404Y-3.5946
X8.3904Y-3.5946
X8.4404Y-3.5946
T6
X7.4413Y-3.767
X7.5413Y-3.767
T7
X9.3496Y-5.4488
X9.4496Y-5.4488
X9.5496Y-5.4488
X9.6496Y-5.4488
X9.7496Y-5.4488
X9.8496Y-5.4488
X10.2677Y-4.9213
X10.2677Y-5.0213
X10.2677Y-5.1213
X10.4134Y-4.9213
X10.4134Y-5.0213
X10.4134Y-5.1213
T8
X8.895Y-4.4016
X8.895Y-4.5984
T9
X7.4814Y-4.9914
X8.3003Y-4.9914
T3
G00X10.1378Y-4.3912
M15
G01X10.0984Y-4.3912
M16
G05
G00X10.0984Y-4.7849
M15
G01X10.1378Y-4.7849
M16
G05
G00X10.315Y-4.6078
M15
G01X10.315Y-4.5684
M16
G05
T4
G00X8.8067Y-4.8559
M15
G01X8.7831Y-4.8559
M16
G05
G00X8.8067Y-5.1961
M15
G01X8.7831Y-5.1961
M16
G05
G00X8.9811Y-4.8559
M15
G01X8.9378Y-4.8559
M16
G05
G00X8.9811Y-5.1961
M15
G01X8.9378Y-5.1961
M16
G05
M30
