M48
; DRILL file KiCad 10.0.4 date 2026-08-13T16:19:03
; FORMAT={-:-/ absolute / inch / decimal}
; #@! TF.CreationDate,2026-08-13T16:19:03-04:00
; #@! TF.GenerationSoftware,Kicad,Pcbnew,10.0.4
; #@! TF.FileFunction,NonPlated,1,2,NPTH
FMAT,2
INCH
; #@! TA.AperFunction,NonPlated,NPTH,ComponentDrill
T1C0.0197
; #@! TA.AperFunction,NonPlated,NPTH,ComponentDrill
T2C0.0256
; #@! TA.AperFunction,NonPlated,NPTH,ComponentDrill
T3C0.0472
; #@! TA.AperFunction,NonPlated,NPTH,ComponentDrill
T4C0.0866
; #@! TA.AperFunction,NonPlated,NPTH,ComponentDrill
T5C0.0945
%
G90
G05
T1
X8.498Y-3.7764
X8.498Y-3.8055
X8.498Y-3.8346
X8.498Y-3.8638
X8.498Y-3.8929
X8.7185Y-3.7909
X8.7185Y-3.8201
X8.7185Y-3.8492
X8.7185Y-3.8783
X10.371Y-5.2579
T2
X8.9386Y-4.9122
X8.9386Y-5.1398
T3
X10.1181Y-4.5881
X10.315Y-4.3912
X10.315Y-4.7849
X10.4134Y-4.3912
X10.4134Y-4.7849
T4
X7.4138Y-5.3851
X8.4059Y-5.3851
X8.815Y-3.5039
X8.815Y-5.4272
X10.3898Y-5.4272
T5
X8.6083Y-3.8346
M30
